<?xml version="1.0" encoding="UTF-8"?>
<svg width="16px" height="16px" viewBox="0 0 16 16" version="1.1" xmlns="http://www.w3.org/2000/svg" xmlns:xlink="http://www.w3.org/1999/xlink">
    <title>切片</title>
    <g id="页面-1" stroke="none" stroke-width="1" fill="none" fill-rule="evenodd">
        <g id="下拉明细" transform="translate(-781.000000, -729.000000)">
            <g id="编组备份-4" transform="translate(597.000000, 575.000000)">
                <g id="icon_dianpu_moren" transform="translate(24.000000, 147.000000)">
                    <g transform="translate(160.000000, 7.000000)">
                        <rect id="矩形" x="0" y="0" width="16" height="16"></rect>
                        <path d="M12.9201593,1.08064529 C13.3081453,1.08064529 13.6611129,1.30507368 13.8257213,1.65641004 L15.3983296,5.04452965 L15.7733984,5.89620616 C15.7781083,5.90836591 15.7820389,5.91890271 15.7851902,5.92781657 C15.7995266,5.96836824 15.8147612,6.03587126 15.8286463,6.12490272 L15.8539513,6.33006342 C15.8576469,6.36850536 15.8610261,6.40893766 15.8640055,6.45115947 L15.8764202,6.7243575 C15.8952797,7.59873291 15.7306961,8.92275674 14.8971677,9.52507822 L14.8954653,14.0588794 C14.8954653,14.5717152 14.5094251,14.9943865 14.0120864,15.0521516 L13.8954653,15.0588794 L1.9089776,15.0588794 C1.39614176,15.0588794 0.973470438,14.6728392 0.91570533,14.1755005 L0.908977599,14.0588794 L0.907997817,9.49383742 C0.415397903,9.08354538 0.107611203,8.47675824 0.0420162639,7.95654334 C-0.0525349995,7.20668403 0.0124937529,6.46840423 0.237102521,5.74170394 L0.328811123,5.46973413 L2.06123978,1.66614371 C2.205621,1.34915112 2.50275309,1.13308488 2.84221964,1.08898365 L2.97128837,1.08064529 L12.9201593,1.08064529 Z M12.538,2.68 L3.357,2.68 L1.818,6.058 L1.76575131,6.21417922 C1.63450073,6.63882796 1.58149264,7.06305967 1.60567948,7.49570997 L1.6294466,7.75638107 C1.64490368,7.87896684 1.73441492,8.058199 1.8557237,8.19108334 L1.93198663,8.26442825 L2.50783693,8.74406048 L2.506,13.458 L13.295,13.461 L13.2974747,8.70701975 L13.9600467,8.22823424 C14.0574038,8.15788238 14.1923945,7.84111669 14.250029,7.34671762 C14.2690916,7.18319549 14.2780387,7.01348513 14.2778669,6.84934676 L14.2674056,6.55663827 L14.2603406,6.44622031 C14.2604944,6.43292789 14.2623824,6.42891855 14.2671744,6.43776522 L14.064101,5.97497263 L12.538,2.68 Z" id="形状结合" fill="#D9D9D9" fill-rule="nonzero"></path>
                        <path d="M12.9201593,1.08064529 C13.3081453,1.08064529 13.6611129,1.30507368 13.8257213,1.65641004 L15.3983296,5.04452965 L15.7733984,5.89620616 C15.7781083,5.90836591 15.7820389,5.91890271 15.7851902,5.92781657 C15.7993348,5.96782578 15.8143538,6.03407011 15.8280884,6.12134136 L15.8532055,6.32237661 L15.87106,6.57022466 C15.9185212,7.55350777 15.7421265,9.29412579 14.4905515,9.73812253 C12.9961289,10.3281992 12.0742354,9.60411881 11.5334255,8.94205827 L11.3824236,8.74667688 L11.253138,8.56327374 L11.0551212,8.26543046 L10.9840926,8.16750445 C10.9529545,8.12910498 10.928237,8.10758294 10.9092939,8.10758294 C10.8832472,8.10758294 10.8467528,8.13620715 10.7990764,8.18629952 L10.6885965,8.31298816 L10.4641105,8.5825328 L10.2733718,8.7966843 C9.78870307,9.31616071 9.02319731,9.93953239 7.90222145,9.93953239 C6.69549018,9.93953239 5.95053365,9.28672562 5.50696799,8.79712054 L5.15792581,8.39213856 C5.08847011,8.31476887 5.03664497,8.26834706 4.99940902,8.26834706 C4.92493712,8.26834706 4.86643045,8.30874947 4.79550429,8.38423023 L4.51708261,8.71058357 C4.39293275,8.85089701 4.22797868,9.02096476 3.99383568,9.21546277 C1.79410944,10.9995429 0.201571521,9.22193094 0.0420162639,7.95654334 C-0.0525349995,7.20668403 0.0124937529,6.46840423 0.237102521,5.74170394 L0.328811123,5.46973413 L2.06123978,1.66614371 C2.205621,1.34915112 2.50275309,1.13308488 2.84221964,1.08898365 L2.97128837,1.08064529 L12.9201593,1.08064529 Z M12.538,2.68 L3.357,2.68 L1.818,6.057 L1.75023383,6.26559547 C1.62931127,6.67654611 1.58181328,7.0870473 1.60620041,7.50479864 L1.6294466,7.75638107 C1.70547465,8.35933802 2.18533943,8.62215017 2.9714688,7.98470448 C3.01554195,7.94809378 3.07810711,7.88623937 3.15153767,7.81031857 L3.52957687,7.41145012 C3.70731068,7.22550796 3.88274647,7.05036399 3.99487139,6.97543662 C4.28582212,6.78100909 4.62798193,6.66834706 4.99940902,6.66834706 C5.38440764,6.66834706 5.68103688,6.78518801 5.93960719,6.95882713 C6.05712653,7.03774553 6.1504354,7.11861129 6.24137453,7.20969713 L6.33316341,7.30574502 L6.65590301,7.68157077 L6.77671847,7.81308425 L6.89087662,7.92372352 C7.19504492,8.20214613 7.49773945,8.33953239 7.90222145,8.33953239 C8.28299571,8.33953239 8.60800235,8.18261245 8.95034699,7.85967622 L9.03005399,7.782055 L9.1895858,7.61018267 L9.55555419,7.17540176 L9.6401025,7.08322224 C9.7249184,6.99410844 9.80991996,6.91560391 9.91753409,6.83686874 C10.1851581,6.64106341 10.4866494,6.50758294 10.9092939,6.50758294 C11.4082728,6.50758294 11.7390319,6.68636787 12.0212665,6.94157473 C12.0886974,7.00254817 12.1448079,7.06155972 12.1968674,7.12323797 L12.3082354,7.26557899 L12.4204908,7.42875993 L12.4789752,7.51750637 C12.6267097,7.74224054 12.7121413,7.86166396 12.8185802,7.98461914 C13.1546207,8.37280348 13.3850533,8.45442034 13.955614,8.23019618 C14.1687791,8.15457577 14.3906968,6.78361133 14.2766865,6.46112384 L14.064101,5.97497263 L12.538,2.68 Z" id="路径-14" fill="#D9D9D9" fill-rule="nonzero"></path>
                    </g>
                </g>
            </g>
        </g>
    </g>
</svg>